<?xml version="1.0" encoding="utf-8"?>
<!-- Generator: Adobe Illustrator 26.2.1, SVG Export Plug-In . SVG Version: 6.00 Build 0)  -->
<svg version="1.1" id="Слой_1" xmlns="http://www.w3.org/2000/svg" xmlns:xlink="http://www.w3.org/1999/xlink" x="0px" y="0px"
	 viewBox="0 0 500 100" style="enable-background:new 0 0 500 100;" xml:space="preserve">
<style type="text/css">
	.st0{fill:#FFFFFF;}
	.st1{fill:#FFFFFF;stroke:#FFFFFF;stroke-miterlimit:10;}
	.st2{font-family:'Supria-Sans-Heavy';}
	.st3{font-size:112.8787px;}
</style>
<path class="st0" d="M52.4,27.9H38.8v47.9c0,6.1-2.1,8.5-5.1,8.5c-2.5,0-4.6-0.4-6.6-1l-1.4,9.3c2.7,0.8,6.1,1.3,10.3,1.3
	c11.2,0,16.2-6.7,16.2-17.7L52.4,27.9L52.4,27.9z M38.8,20.5h13.7V8.8H38.8V20.5z"/>
<path class="st0" d="M204.8,74.1H215l2-5.1h0.5c2.2,2.4,6.2,6.1,14.5,6.1c10.3,0,19.7-6.8,19.7-24.2c0-17.5-9.6-23.9-19.7-23.9
	c-6.4,0-10.8,2.6-13.1,5.3h-0.5V6.1h-13.6L204.8,74.1L204.8,74.1z M218.4,40.7c2.1-2.4,5.4-4,8.6-4c6.1,0,10.9,3.2,10.9,14.3
	c0,11.1-4.6,14.5-10.9,14.5c-3.9,0-6.9-1.8-8.6-3.9V40.7z"/>
<path class="st0" d="M253.2,51c0,14.6,7.9,23.9,24.4,23.9c16.2,0,24.4-9.5,24.4-23.9c0-14.6-8.2-24.2-24.4-24.2
	C261.1,26.9,253.2,36.4,253.2,51z M277.5,65.3c-6.5,0-10.6-3.7-10.6-14.3c0-10.8,4-14.5,10.6-14.5c6.3,0,10.4,3.7,10.4,14.5
	C288,61.6,283.9,65.3,277.5,65.3z"/>
<path class="st0" d="M300.4,74.1h14.5l6.2-9.4c1.7-2.6,2.8-4.5,4.2-7.3h0.7c1.5,2.7,2.2,4.1,4.1,7.1l6.4,9.6H351v-1.3l-16.6-22.4
	l16.3-21.1v-1.4h-14.5l-5.8,8.4c-1.8,2.6-3,4.6-4.6,7.5h-0.7c-1.4-2.9-2.8-5.2-4.5-7.5l-5.7-8.3h-14.5v1.4l16.1,21.5l-16.3,22V74.1z
	"/>
<rect x="353.2" y="59.5" class="st0" width="15.7" height="14.6"/>
<g>
	<path class="st0" d="M394.3,71.9c0,0.1,0,0.2,0,0.4c0,0.1,0,0.2,0,0.2c-0.1,1.2,0.4,2.2,1.4,3c1,0.8,2.6,1.2,4.7,1.2
		c2.6,0,4.7-0.8,6.2-2.3c1.5-1.5,2.4-3.8,2.4-6.8v-4.8h-0.7c-1.3,1.4-3.1,2.5-5.3,3.5c-2.2,0.9-4.6,1.4-7.2,1.4
		c-2.2,0-4.3-0.3-6.5-1c-2.2-0.7-4.1-1.8-5.9-3.3c-1.8-1.5-3.2-3.6-4.3-6.2c-1.1-2.6-1.7-5.8-1.7-9.7c0.1-4.9,1-8.8,2.8-11.9
		c1.8-3.1,4.2-5.4,7-6.8c2.8-1.4,5.6-2.1,8.6-2.1c2.6,0.1,4.8,0.4,6.6,1.2c1.8,0.8,3.3,1.7,4.4,2.7c1.1,1,1.9,1.8,2.4,2.5h0.6l2-5.5
		h11.3v38.3c-0.1,4.7-1,8.6-2.9,11.8c-1.9,3.2-4.6,5.5-7.9,7.1c-3.3,1.6-7.2,2.4-11.5,2.4c-4.7-0.1-8.5-0.7-11.6-1.8
		c-3.1-1.2-5.4-2.8-7-4.7c-1.6-2-2.3-4.2-2.3-6.6c0-0.4,0-0.8,0-1.2c0-0.4,0.1-0.8,0.2-1.2L394.3,71.9z M405.2,56.7
		c1.2-0.7,2.2-1.5,3-2.6V40.6c-0.8-1.1-1.8-2-3-2.6c-1.2-0.6-2.5-0.9-3.7-0.9c-1.4-0.1-2.8,0.2-4.2,0.7c-1.3,0.6-2.3,1.6-3.2,3.1
		c-0.8,1.6-1.3,3.7-1.3,6.6c0.1,2.8,0.5,4.9,1.3,6.4c0.8,1.5,1.9,2.5,3.2,3.1c1.3,0.6,2.6,0.8,4.1,0.8
		C402.7,57.8,404,57.4,405.2,56.7z"/>
	<path class="st0" d="M432.7,43c-0.1-0.4-0.2-0.9-0.2-1.5c-0.1-0.5-0.1-1-0.1-1.6c-0.1-4.1,1.6-7.3,5-9.6c3.3-2.3,8.6-3.5,15.7-3.6
		c5.3,0.1,9.4,0.8,12.3,2.2c2.9,1.4,5,3.3,6.1,5.6c1.2,2.4,1.8,5,1.7,7.7v14.6c0,0.9,0.2,1.6,0.5,2.1c0.3,0.4,0.7,0.7,1.3,0.7
		c0.7,0,1.4-0.1,2.1-0.2l0.6,9.5c-1.2,0.4-2.4,0.7-3.8,0.9c-1.4,0.2-2.8,0.3-4.2,0.3c-2.3-0.1-4.1-0.4-5.3-1.1
		c-1.2-0.7-2-1.5-2.5-2.5c-0.5-1-0.8-2-0.8-3h-0.6c-0.7,0.9-1.7,1.8-3.1,2.8c-1.3,1-3,1.9-5.1,2.6c-2.1,0.7-4.6,1.1-7.6,1.2
		c-4.4,0-7.8-0.9-10.4-2.8c-2.5-1.8-3.8-4.6-3.9-8.3c-0.1-2.9,0.8-5.3,2.5-7.4c1.7-2,4.6-3.7,8.8-4.8c4.2-1.2,9.8-1.9,16.9-2.1v-2.8
		c0-1.7-0.5-3-1.6-3.9c-1.1-1-2.7-1.5-4.8-1.5c-2.3,0-4,0.4-5.1,1.1c-1.1,0.8-1.6,1.9-1.6,3.3c0,0.2,0,0.5,0.1,0.7
		c0,0.3,0,0.6,0.1,0.9L432.7,43z M446,59.7c0.8,0.6,2.1,0.9,3.7,0.9c1.7,0,3.3-0.3,4.9-1c1.5-0.7,2.9-1.7,4-2.8v-5.7
		c-3.7,0.2-6.5,0.5-8.6,1c-2,0.6-3.5,1.2-4.2,2.1c-0.8,0.8-1.2,1.7-1.2,2.7C444.7,58.1,445.2,59.1,446,59.7z"/>
</g>
<text transform="matrix(1 0 0 1 63.7002 79.0643)" class="st1 st2 st3">ae</text>
</svg>
