<?xml version="1.0" encoding="utf-8"?>
<!-- Generator: Adobe Illustrator 26.2.1, SVG Export Plug-In . SVG Version: 6.00 Build 0)  -->
<svg version="1.1" id="Слой_1" xmlns="http://www.w3.org/2000/svg" xmlns:xlink="http://www.w3.org/1999/xlink" x="0px" y="0px"
	 viewBox="0 0 500 100" style="enable-background:new 0 0 500 100;" xml:space="preserve">
<style type="text/css">
	.st0{fill:#FFFFFF;}
</style>
<g>
	<path class="st0" d="M32.3,79.3c0,6.3-1.6,11.2-4.8,14.6c-3.2,3.3-7.9,5-14.2,5.1c-2.6,0-4.9-0.1-6.8-0.4c-1.9-0.2-3.7-0.5-5.3-1
		l1.5-11.8c1.1,0.2,2.1,0.4,3.3,0.5c1.2,0.2,2.4,0.3,3.7,0.3c1.5,0,2.6-0.6,3.5-1.9c0.9-1.3,1.3-3.3,1.3-6.1V27.8h17.9V79.3z
		 M14.5,7h17.9v13.6H14.5V7z"/>
	<path class="st0" d="M43.6,46.2c-0.1-0.5-0.2-1.1-0.2-1.8c-0.1-0.6-0.1-1.2-0.1-1.9c-0.1-4.9,1.9-8.7,5.9-11.5
		c4-2.8,10.2-4.2,18.7-4.3c6.3,0.1,11.2,1,14.7,2.7c3.5,1.7,5.9,4,7.3,6.7c1.5,2.8,2.1,5.9,2.1,9.2v17.4c0,1.1,0.2,1.9,0.6,2.5
		c0.3,0.5,0.9,0.8,1.6,0.8c0.9,0,1.7-0.1,2.5-0.3l0.7,11.3c-1.4,0.5-2.9,0.8-4.6,1.1c-1.7,0.3-3.3,0.4-5.1,0.4
		c-2.8-0.1-4.9-0.5-6.3-1.3c-1.5-0.8-2.4-1.8-3-3c-0.6-1.2-0.9-2.4-1-3.6h-0.7c-0.8,1.1-2,2.2-3.7,3.4c-1.6,1.2-3.6,2.2-6.1,3.1
		c-2.5,0.9-5.5,1.3-9,1.4c-5.2,0-9.3-1.1-12.4-3.4c-3-2.2-4.6-5.5-4.7-9.9c-0.1-3.4,0.9-6.4,3-8.8c2-2.4,5.5-4.4,10.5-5.7
		c5-1.4,11.7-2.2,20.2-2.5v-3.4c0-2-0.6-3.5-1.9-4.7c-1.3-1.2-3.2-1.8-5.7-1.8c-2.7,0-4.7,0.4-6,1.3c-1.3,0.9-1.9,2.2-1.9,4
		c0,0.3,0,0.6,0.1,0.9c0,0.3,0,0.7,0.1,1.1L43.6,46.2z M59.5,66.2c1,0.7,2.5,1.1,4.5,1.1c2,0,4-0.4,5.8-1.2c1.8-0.9,3.4-2,4.8-3.4
		v-6.8c-4.4,0.2-7.8,0.6-10.2,1.2c-2.4,0.7-4.1,1.5-5.1,2.5c-1,0.9-1.5,2-1.4,3.3C58,64.3,58.5,65.4,59.5,66.2z"/>
	<path class="st0" d="M104.8,39.5c1.9-3.9,4.9-7,9-9.3c4.1-2.2,9.4-3.4,16-3.5c5.5,0,10.1,0.8,13.9,2.5c3.8,1.7,6.6,3.9,8.5,6.8
		c2,2.9,3,6.3,3,10.1c0,1.3-0.1,2.6-0.2,4.2c-0.1,1.5-0.3,2.8-0.5,4.1h-35.3c0.1,4.3,1,7.4,2.9,9.3c1.8,1.9,4.3,2.9,7.4,2.9
		c3.1-0.1,5.3-0.7,6.5-1.8c1.3-1.1,2-2.4,2-3.8c0-0.1,0-0.2,0-0.4c0-0.1,0-0.3,0-0.6l16.4,0.2c0.1,0.3,0.1,0.7,0.2,1.1
		c0.1,0.4,0.1,0.8,0.1,1.1c0,1.6-0.3,3.3-0.9,5.2c-0.7,1.8-1.9,3.5-3.7,5.3c-1.8,1.7-4.4,3-7.7,4.1c-3.3,1.1-7.7,1.6-13.1,1.7
		c-9.2-0.1-16-2.3-20.6-6.8c-4.6-4.4-6.8-10.8-6.8-19C101.9,47.8,102.9,43.4,104.8,39.5z M138.9,46c0.1-0.2,0.1-0.4,0.1-0.6
		c0-0.2,0-0.4,0-0.6c-0.1-2.5-0.9-4.4-2.6-5.6c-1.7-1.3-3.9-2-6.5-2c-2.8,0-5.2,0.7-6.9,2.2c-1.9,1.5-2.9,3.7-3.3,6.6H138.9z"/>
	<path class="st0" d="M164.2,4.5h17.9v28.1h0.7c1.2-1.6,2.9-2.9,5.3-4.1c2.3-1.1,5.2-1.7,8.5-1.8c3.6-0.1,7,0.7,10.3,2.3
		c3.3,1.7,6,4.4,8.1,8.1c2.2,3.8,3.3,8.9,3.4,15.4c-0.1,6.5-1.2,11.6-3.3,15.5c-2.1,3.8-4.8,6.5-8,8.1c-3.3,1.6-6.8,2.5-10.5,2.5
		c-3-0.1-5.5-0.5-7.6-1.2c-2-0.8-3.8-1.7-5.2-2.8c-1.3-1.1-2.4-2-3.2-3H180l-2.4,5.8h-13.5V4.5z M182.1,62.4
		c0.8,1.1,1.9,1.9,3.3,2.6c1.3,0.7,2.8,1.1,4.6,1.2c1.8,0,3.5-0.4,5.1-1.2c1.6-0.9,2.8-2.3,3.7-4.3c0.9-2,1.4-4.7,1.4-8.2
		c0-3.5-0.5-6.2-1.4-8.1c-0.9-2-2.2-3.3-3.8-4.1c-1.5-0.8-3.2-1.2-5-1.1c-1.5,0-3,0.4-4.4,1.1c-1.5,0.7-2.6,1.6-3.5,2.8V62.4z"/>
	<path class="st0" d="M227.5,39c2-3.8,5-6.8,9.1-9c4.1-2.2,9.3-3.3,15.7-3.3c6.2,0,11.4,1.1,15.5,3.3c4.1,2.2,7.2,5.2,9.2,9
		c2,3.9,3,8.5,3,13.7c0,5.2-1,9.7-3,13.6c-2,3.8-5.1,6.8-9.2,9c-4.1,2.1-9.2,3.2-15.5,3.3c-6.3-0.1-11.6-1.2-15.7-3.3
		c-4.1-2.2-7.1-5.2-9.1-9c-2-3.8-3-8.4-3-13.6C224.5,47.5,225.5,42.9,227.5,39z M259,63.2c1.7-2,2.6-5.5,2.7-10.5
		c-0.1-5-1-8.6-2.7-10.6c-1.7-2-4-2.9-6.7-2.9c-2.9-0.1-5.3,0.9-7,2.9c-1.7,2-2.6,5.6-2.7,10.6c0.1,5,1,8.5,2.7,10.5
		c1.8,2,4.1,3,7,3C255,66.3,257.3,65.3,259,63.2z"/>
	<path class="st0" d="M284.4,75.9L302,52.4l-17.1-22.9v-1.8h18.9l5.3,8c0.9,1.2,1.6,2.4,2.3,3.7c0.7,1.3,1.3,2.6,2,4.2h0.9
		c0.7-1.5,1.4-2.8,2.1-4c0.7-1.1,1.5-2.3,2.4-3.8l5.3-8.1h18.8v1.8L325.4,52l17.6,23.9v1.6h-18.8l-5.9-9.2c-0.9-1.4-1.7-2.6-2.3-3.7
		c-0.5-1.1-1.2-2.3-1.9-3.8h-0.9c-0.7,1.5-1.4,2.8-2,4c-0.6,1.1-1.3,2.3-2.2,3.6l-5.8,9.1h-18.8V75.9z"/>
	<path class="st0" d="M350.8,59.7h19.7v17.8h-19.7V59.7z"/>
	<path class="st0" d="M399.9,80.7c0,0.1,0,0.3,0,0.5c0,0.1,0,0.2,0,0.3c-0.1,1.5,0.5,2.6,1.7,3.6c1.2,0.9,3.1,1.4,5.6,1.5
		c3.1,0,5.6-0.9,7.4-2.8c1.8-1.8,2.8-4.6,2.9-8.1v-5.7h-0.8c-1.6,1.7-3.7,3-6.3,4.2c-2.6,1.1-5.4,1.6-8.6,1.7
		c-2.6,0-5.2-0.4-7.7-1.2c-2.6-0.8-4.9-2.1-7-4c-2.1-1.8-3.8-4.3-5.2-7.4c-1.3-3.1-2-7-2-11.6c0.1-5.8,1.2-10.5,3.4-14.2
		c2.2-3.7,5-6.4,8.3-8.1c3.3-1.6,6.7-2.5,10.2-2.5c3.1,0.1,5.7,0.5,7.9,1.4c2.2,0.9,3.9,2,5.2,3.2s2.3,2.2,2.9,3h0.7l2.4-6.5h13.5
		v45.7c-0.1,5.6-1.2,10.3-3.5,14.1c-2.3,3.8-5.4,6.6-9.4,8.5c-4,1.9-8.6,2.9-13.8,2.9c-5.5-0.1-10.2-0.8-13.9-2.2
		c-3.7-1.5-6.5-3.3-8.3-5.6c-1.8-2.4-2.8-5-2.8-7.8c0-0.5,0-1,0-1.5c0-0.5,0.1-1,0.2-1.4L399.9,80.7z M412.9,62.6
		c1.5-0.8,2.6-1.8,3.6-3.1V43.4c-0.9-1.3-2.1-2.3-3.6-3.1c-1.5-0.7-2.9-1.1-4.5-1.1c-1.7-0.1-3.4,0.2-5,0.9
		c-1.5,0.7-2.8,1.9-3.8,3.7c-1,1.9-1.5,4.5-1.6,7.8c0.1,3.3,0.6,5.8,1.6,7.6c1,1.8,2.2,3,3.8,3.7c1.5,0.7,3.1,1,4.9,1
		C410,63.8,411.5,63.4,412.9,62.6z"/>
	<path class="st0" d="M445.7,46.2c-0.1-0.5-0.2-1.1-0.2-1.8c-0.1-0.6-0.1-1.2-0.1-1.9c-0.1-4.9,1.9-8.7,5.9-11.5
		c4-2.8,10.2-4.2,18.7-4.3c6.3,0.1,11.2,1,14.7,2.7c3.5,1.7,5.9,4,7.3,6.7c1.5,2.8,2.1,5.9,2.1,9.2v17.4c0,1.1,0.2,1.9,0.6,2.5
		c0.3,0.5,0.9,0.8,1.6,0.8c0.9,0,1.7-0.1,2.5-0.3l0.7,11.3c-1.4,0.5-2.9,0.8-4.6,1.1c-1.7,0.3-3.3,0.4-5.1,0.4
		c-2.8-0.1-4.9-0.5-6.3-1.3c-1.5-0.8-2.4-1.8-3-3c-0.6-1.2-0.9-2.4-1-3.6h-0.7c-0.8,1.1-2,2.2-3.7,3.4c-1.6,1.2-3.6,2.2-6.1,3.1
		c-2.5,0.9-5.5,1.3-9,1.4c-5.2,0-9.3-1.1-12.4-3.4c-3-2.2-4.6-5.5-4.7-9.9c-0.1-3.4,0.9-6.4,3-8.8c2-2.4,5.5-4.4,10.5-5.7
		c5-1.4,11.7-2.2,20.2-2.5v-3.4c0-2-0.6-3.5-1.9-4.7c-1.3-1.2-3.2-1.8-5.7-1.8c-2.7,0-4.7,0.4-6,1.3c-1.3,0.9-1.9,2.2-1.9,4
		c0,0.3,0,0.6,0.1,0.9c0,0.3,0,0.7,0.1,1.1L445.7,46.2z M461.7,66.2c1,0.7,2.5,1.1,4.5,1.1c2,0,4-0.4,5.8-1.2c1.8-0.9,3.4-2,4.8-3.4
		v-6.8c-4.4,0.2-7.8,0.6-10.2,1.2c-2.4,0.7-4.1,1.5-5.1,2.5c-1,0.9-1.5,2-1.4,3.3C460.1,64.3,460.6,65.4,461.7,66.2z"/>
</g>
</svg>
